<svg width="20" height="18" viewBox="0 0 20 18" fill="none" xmlns="http://www.w3.org/2000/svg">
<path d="M3.56004 16.2733L9.05715 10.7761C9.38717 10.4461 9.55217 10.2811 9.74245 10.2193C9.90982 10.1649 10.0901 10.1649 10.2575 10.2193C10.4477 10.2811 10.6128 10.4461 10.9428 10.7761L16.4032 16.2366M11.6666 11.5L14.0572 9.10948C14.3872 8.77946 14.5522 8.61445 14.7424 8.55263C14.9098 8.49825 15.0901 8.49825 15.2575 8.55263C15.4477 8.61445 15.6128 8.77946 15.9428 9.10947L18.3333 11.5M8.33329 6.5C8.33329 7.42047 7.5871 8.16667 6.66663 8.16667C5.74615 8.16667 4.99996 7.42047 4.99996 6.5C4.99996 5.57953 5.74615 4.83333 6.66663 4.83333C7.5871 4.83333 8.33329 5.57953 8.33329 6.5ZM5.66663 16.5H14.3333C15.7334 16.5 16.4335 16.5 16.9683 16.2275C17.4387 15.9878 17.8211 15.6054 18.0608 15.135C18.3333 14.6002 18.3333 13.9001 18.3333 12.5V5.5C18.3333 4.09987 18.3333 3.3998 18.0608 2.86502C17.8211 2.39462 17.4387 2.01217 16.9683 1.77248C16.4335 1.5 15.7334 1.5 14.3333 1.5H5.66663C4.26649 1.5 3.56643 1.5 3.03165 1.77248C2.56124 2.01217 2.17879 2.39462 1.93911 2.86502C1.66663 3.3998 1.66663 4.09987 1.66663 5.5V12.5C1.66663 13.9001 1.66663 14.6002 1.93911 15.135C2.17879 15.6054 2.56124 15.9878 3.03165 16.2275C3.56643 16.5 4.26649 16.5 5.66663 16.5Z" stroke="#F9FAFB" stroke-width="1.5" stroke-linecap="round" stroke-linejoin="round"/>
</svg>
