<svg width="18" height="16" viewBox="0 0 18 16" fill="none" xmlns="http://www.w3.org/2000/svg">
<path d="M15.6667 8.00028L3.16702 8.00031M3.09648 8.24323L1.15071 14.0555C0.997847 14.5121 0.921417 14.7404 0.976267 14.881C1.0239 15.0031 1.1262 15.0957 1.25244 15.1309C1.3978 15.1715 1.61736 15.0727 2.05647 14.8751L15.9827 8.60826C16.4113 8.41539 16.6256 8.31895 16.6918 8.18499C16.7494 8.0686 16.7494 7.93203 16.6918 7.81564C16.6256 7.68168 16.4113 7.58524 15.9827 7.39237L2.05161 1.12342C1.61383 0.926414 1.39493 0.827912 1.24971 0.868319C1.1236 0.90341 1.0213 0.995732 0.973507 1.1176C0.91847 1.25793 0.994084 1.48574 1.14531 1.94137L3.09702 7.82159C3.12299 7.89984 3.13598 7.93897 3.14111 7.97899C3.14565 8.0145 3.14561 8.05045 3.14097 8.08594C3.13574 8.12595 3.12265 8.16504 3.09648 8.24323Z" stroke="#F9FAFB" stroke-width="1.5" stroke-linecap="round" stroke-linejoin="round"/>
</svg>
